<?xml version="1.0" encoding="UTF-8"?>
<svg xmlns="http://www.w3.org/2000/svg" fill="#EFC88B" width="512" height="512" id="Capa_14" data-name="Capa 14" viewBox="0 0 24 24">
  <path d="m10.683,12.659c0,.964-.691,1.748-1.559,1.748-.854,0-1.559-.784-1.559-1.748s.69-1.748,1.559-1.748c.875,0,1.572.792,1.559,1.748h0Zm0,0"/>
  <path d="m16.445,12.659c0,.964-.683,1.748-1.559,1.748-.855,0-1.559-.784-1.559-1.748s.691-1.748,1.559-1.748c.875,0,1.572.792,1.559,1.748h0Zm0,0"/>
  <path d="m12,0C5.373,0,0,5.373,0,12s5.373,12,12,12,12-5.373,12-12S18.627,0,12,0h0Zm8.574,16.418c-1.483,1.089-2.92,1.751-4.337,2.189-.023.007-.047-.001-.061-.021-.327-.456-.624-.936-.885-1.44-.015-.03-.001-.065.03-.077.472-.179.921-.392,1.353-.644.034-.02.036-.069.005-.092-.092-.068-.182-.14-.269-.211-.017-.013-.039-.016-.057-.007-2.805,1.296-5.878,1.296-8.716,0-.018-.008-.04-.005-.056.008-.087.071-.177.142-.269.211-.031.023-.029.072.005.092.432.247.881.465,1.353.645.031.012.046.047.03.076-.254.505-.552.985-.886,1.441-.014.019-.038.027-.061.02-1.411-.438-2.847-1.1-4.331-2.189-.012-.01-.021-.025-.022-.041-.302-3.236.314-6.512,2.562-9.871.006-.009.014-.016.023-.02,1.106-.508,2.291-.882,3.53-1.095.022-.003.045.007.057.027.153.272.328.619.447.903,1.305-.199,2.632-.199,3.965,0,.118-.278.287-.631.439-.903.012-.021.034-.031.057-.027,1.239.214,2.425.588,3.53,1.095.01.004.018.011.022.021,1.959,2.881,2.926,6.13,2.564,9.871-.001.016-.01.03-.022.04h0Zm0,0"/>
</svg>
